<svg id="visual" viewBox="0 0 960 540" width="960" height="540" xmlns="http://www.w3.org/2000/svg" xmlns:xlink="http://www.w3.org/1999/xlink" version="1.1"><rect x="0" y="0" width="960" height="540" fill="#002233"></rect><path d="M0 367L22.8 378.7C45.7 390.3 91.3 413.7 137 426.3C182.7 439 228.3 441 274 439.7C319.7 438.3 365.3 433.7 411.2 432C457 430.3 503 431.7 548.8 435.2C594.7 438.7 640.3 444.3 686 428.5C731.7 412.7 777.3 375.3 823 361.2C868.7 347 914.3 356 937.2 360.5L960 365L960 541L937.2 541C914.3 541 868.7 541 823 541C777.3 541 731.7 541 686 541C640.3 541 594.7 541 548.8 541C503 541 457 541 411.2 541C365.3 541 319.7 541 274 541C228.3 541 182.7 541 137 541C91.3 541 45.7 541 22.8 541L0 541Z" fill="#0066FF" stroke-linecap="round" stroke-linejoin="miter"></path></svg>