<svg id="visual" viewBox="0 0 960 540" width="960" height="540" xmlns="http://www.w3.org/2000/svg" xmlns:xlink="http://www.w3.org/1999/xlink" version="1.1"><path d="M0 77L120 77L120 201L240 201L240 179L360 179L360 244L480 244L480 152L600 152L600 249L720 249L720 120L840 120L840 77L960 77L960 136L960 0L960 0L840 0L840 0L720 0L720 0L600 0L600 0L480 0L480 0L360 0L360 0L240 0L240 0L120 0L120 0L0 0Z" fill="#002233"></path><path d="M0 271L120 271L120 309L240 309L240 325L360 325L360 422L480 422L480 271L600 271L600 379L720 379L720 217L840 217L840 293L960 293L960 271L960 134L960 75L840 75L840 118L720 118L720 247L600 247L600 150L480 150L480 242L360 242L360 177L240 177L240 199L120 199L120 75L0 75Z" fill="#07415e"></path><path d="M0 455L120 455L120 341L240 341L240 482L360 482L360 460L480 460L480 455L600 455L600 460L720 460L720 347L840 347L840 406L960 406L960 347L960 269L960 291L840 291L840 215L720 215L720 377L600 377L600 269L480 269L480 420L360 420L360 323L240 323L240 307L120 307L120 269L0 269Z" fill="#1b638e"></path><path d="M0 492L120 492L120 433L240 433L240 525L360 525L360 519L480 519L480 487L600 487L600 519L720 519L720 465L840 465L840 514L960 514L960 455L960 345L960 404L840 404L840 345L720 345L720 458L600 458L600 453L480 453L480 458L360 458L360 480L240 480L240 339L120 339L120 453L0 453Z" fill="#3387c1"></path><path d="M0 541L120 541L120 541L240 541L240 541L360 541L360 541L480 541L480 541L600 541L600 541L720 541L720 541L840 541L840 541L960 541L960 541L960 453L960 512L840 512L840 463L720 463L720 517L600 517L600 485L480 485L480 517L360 517L360 523L240 523L240 431L120 431L120 490L0 490Z" fill="#4facf7"></path></svg>