<svg id="visual" viewBox="0 0 960 540" width="960" height="540" xmlns="http://www.w3.org/2000/svg" xmlns:xlink="http://www.w3.org/1999/xlink" version="1.1"><path d="M0 55L14.5 61.3C29 67.7 58 80.3 87.2 76.7C116.3 73 145.7 53 174.8 46.7C204 40.3 233 47.7 262 55C291 62.3 320 69.7 349 73.3C378 77 407 77 436.2 77.8C465.3 78.7 494.7 80.3 523.8 74.8C553 69.3 582 56.7 611 50.3C640 44 669 44 698 51.2C727 58.3 756 72.7 785.2 78.2C814.3 83.7 843.7 80.3 872.8 80.3C902 80.3 931 83.7 945.5 85.3L960 87L960 0L945.5 0C931 0 902 0 872.8 0C843.7 0 814.3 0 785.2 0C756 0 727 0 698 0C669 0 640 0 611 0C582 0 553 0 523.8 0C494.7 0 465.3 0 436.2 0C407 0 378 0 349 0C320 0 291 0 262 0C233 0 204 0 174.8 0C145.7 0 116.3 0 87.2 0C58 0 29 0 14.5 0L0 0Z" fill="#0066ff"></path><path d="M0 104L14.5 118.3C29 132.7 58 161.3 87.2 169.3C116.3 177.3 145.7 164.7 174.8 152C204 139.3 233 126.7 262 122.2C291 117.7 320 121.3 349 128.7C378 136 407 147 436.2 149.7C465.3 152.3 494.7 146.7 523.8 145.7C553 144.7 582 148.3 611 146.7C640 145 669 138 698 139.8C727 141.7 756 152.3 785.2 156.8C814.3 161.3 843.7 159.7 872.8 153.3C902 147 931 136 945.5 130.5L960 125L960 85L945.5 83.3C931 81.7 902 78.3 872.8 78.3C843.7 78.3 814.3 81.7 785.2 76.2C756 70.7 727 56.3 698 49.2C669 42 640 42 611 48.3C582 54.7 553 67.3 523.8 72.8C494.7 78.3 465.3 76.7 436.2 75.8C407 75 378 75 349 71.3C320 67.7 291 60.3 262 53C233 45.7 204 38.3 174.8 44.7C145.7 51 116.3 71 87.2 74.7C58 78.3 29 65.7 14.5 59.3L0 53Z" fill="#005acc"></path><path d="M0 212L14.5 240.7C29 269.3 58 326.7 87.2 342.8C116.3 359 145.7 334 174.8 323.3C204 312.7 233 316.3 262 310.8C291 305.3 320 290.7 349 303.2C378 315.7 407 355.3 436.2 366.2C465.3 377 494.7 359 523.8 343.7C553 328.3 582 315.7 611 318.3C640 321 669 339 698 335.5C727 332 756 307 785.2 303.5C814.3 300 843.7 318 872.8 332.3C902 346.7 931 357.3 945.5 362.7L960 368L960 123L945.5 128.5C931 134 902 145 872.8 151.3C843.7 157.7 814.3 159.3 785.2 154.8C756 150.3 727 139.7 698 137.8C669 136 640 143 611 144.7C582 146.3 553 142.7 523.8 143.7C494.7 144.7 465.3 150.3 436.2 147.7C407 145 378 134 349 126.7C320 119.3 291 115.7 262 120.2C233 124.7 204 137.3 174.8 150C145.7 162.7 116.3 175.3 87.2 167.3C58 159.3 29 130.7 14.5 116.3L0 102Z" fill="#004b99"></path><path d="M0 314L14.5 336.5C29 359 58 404 87.2 425.7C116.3 447.3 145.7 445.7 174.8 445.7C204 445.7 233 447.3 262 442.8C291 438.3 320 427.7 349 426.8C378 426 407 435 436.2 436.8C465.3 438.7 494.7 433.3 523.8 432.3C553 431.3 582 434.7 611 432.8C640 431 669 424 698 417.8C727 411.7 756 406.3 785.2 411.7C814.3 417 843.7 433 872.8 443.7C902 454.3 931 459.7 945.5 462.3L960 465L960 366L945.5 360.7C931 355.3 902 344.7 872.8 330.3C843.7 316 814.3 298 785.2 301.5C756 305 727 330 698 333.5C669 337 640 319 611 316.3C582 313.7 553 326.3 523.8 341.7C494.7 357 465.3 375 436.2 364.2C407 353.3 378 313.7 349 301.2C320 288.7 291 303.3 262 308.8C233 314.3 204 310.7 174.8 321.3C145.7 332 116.3 357 87.2 340.8C58 324.7 29 267.3 14.5 238.7L0 210Z" fill="#003865"></path><path d="M0 541L14.5 541C29 541 58 541 87.2 541C116.3 541 145.7 541 174.8 541C204 541 233 541 262 541C291 541 320 541 349 541C378 541 407 541 436.2 541C465.3 541 494.7 541 523.8 541C553 541 582 541 611 541C640 541 669 541 698 541C727 541 756 541 785.2 541C814.3 541 843.7 541 872.8 541C902 541 931 541 945.5 541L960 541L960 463L945.5 460.3C931 457.7 902 452.3 872.8 441.7C843.7 431 814.3 415 785.2 409.7C756 404.3 727 409.7 698 415.8C669 422 640 429 611 430.8C582 432.7 553 429.3 523.8 430.3C494.7 431.3 465.3 436.7 436.2 434.8C407 433 378 424 349 424.8C320 425.7 291 436.3 262 440.8C233 445.3 204 443.7 174.8 443.7C145.7 443.7 116.3 445.3 87.2 423.7C58 402 29 357 14.5 334.5L0 312Z" fill="#002233"></path></svg>