<svg id="visual" viewBox="0 0 540 960" width="540" height="960" xmlns="http://www.w3.org/2000/svg" xmlns:xlink="http://www.w3.org/1999/xlink" version="1.1"><rect x="0" y="0" width="540" height="960" fill="#0066FF"></rect><path d="M0 746L9 744.5C18 743 36 740 54 729.5C72 719 90 701 108 710.3C126 719.7 144 756.3 162 775.7C180 795 198 797 216 770.7C234 744.3 252 689.7 270 664.2C288 638.7 306 642.3 324 649C342 655.7 360 665.3 378 683.5C396 701.7 414 728.3 432 728.3C450 728.3 468 701.7 486 684.2C504 666.7 522 658.3 531 654.2L540 650L540 961L531 961C522 961 504 961 486 961C468 961 450 961 432 961C414 961 396 961 378 961C360 961 342 961 324 961C306 961 288 961 270 961C252 961 234 961 216 961C198 961 180 961 162 961C144 961 126 961 108 961C90 961 72 961 54 961C36 961 18 961 9 961L0 961Z" fill="#002233" stroke-linecap="round" stroke-linejoin="miter"></path></svg>