<svg id="visual" viewBox="0 0 540 960" width="540" height="960" xmlns="http://www.w3.org/2000/svg" xmlns:xlink="http://www.w3.org/1999/xlink" version="1.1"><rect x="0" y="0" width="540" height="960" fill="#4FACF7"></rect><path d="M0 818L45 791L90 730L135 731L180 796L225 712L270 774L315 753L360 776L405 745L450 759L495 714L540 807L540 0L495 0L450 0L405 0L360 0L315 0L270 0L225 0L180 0L135 0L90 0L45 0L0 0Z" fill="#0066ff"></path><path d="M0 552L45 603L90 539L135 575L180 536L225 569L270 626L315 582L360 613L405 545L450 588L495 555L540 557L540 0L495 0L450 0L405 0L360 0L315 0L270 0L225 0L180 0L135 0L90 0L45 0L0 0Z" fill="#0055bb"></path><path d="M0 440L45 417L90 416L135 379L180 420L225 338L270 390L315 390L360 385L405 326L450 439L495 405L540 435L540 0L495 0L450 0L405 0L360 0L315 0L270 0L225 0L180 0L135 0L90 0L45 0L0 0Z" fill="#003f77"></path><path d="M0 172L45 224L90 230L135 209L180 142L225 224L270 169L315 239L360 179L405 202L450 174L495 163L540 241L540 0L495 0L450 0L405 0L360 0L315 0L270 0L225 0L180 0L135 0L90 0L45 0L0 0Z" fill="#002233"></path></svg>