<svg id="visual" viewBox="0 0 540 960" width="540" height="960" xmlns="http://www.w3.org/2000/svg" xmlns:xlink="http://www.w3.org/1999/xlink" version="1.1"><path d="M0 212L8.2 207.2C16.3 202.3 32.7 192.7 49 219.8C65.3 247 81.7 311 98 328.7C114.3 346.3 130.7 317.7 147 292.2C163.3 266.7 179.7 244.3 196 223.5C212.3 202.7 228.7 183.3 245.2 200.8C261.7 218.3 278.3 272.7 294.8 296.7C311.3 320.7 327.7 314.3 344 287.2C360.3 260 376.7 212 393 212C409.3 212 425.7 260 442 263.2C458.3 266.3 474.7 224.7 491 239.2C507.3 253.7 523.7 324.3 531.8 359.7L540 395L540 0L531.8 0C523.7 0 507.3 0 491 0C474.7 0 458.3 0 442 0C425.7 0 409.3 0 393 0C376.7 0 360.3 0 344 0C327.7 0 311.3 0 294.8 0C278.3 0 261.7 0 245.2 0C228.7 0 212.3 0 196 0C179.7 0 163.3 0 147 0C130.7 0 114.3 0 98 0C81.7 0 65.3 0 49 0C32.7 0 16.3 0 8.2 0L0 0Z" fill="#0066ff"></path><path d="M0 289L8.2 298.7C16.3 308.3 32.7 327.7 49 364.5C65.3 401.3 81.7 455.7 98 470C114.3 484.3 130.7 458.7 147 434.7C163.3 410.7 179.7 388.3 196 362.7C212.3 337 228.7 308 245.2 312.8C261.7 317.7 278.3 356.3 294.8 370.8C311.3 385.3 327.7 375.7 344 356.3C360.3 337 376.7 308 393 325.5C409.3 343 425.7 407 442 413.5C458.3 420 474.7 369 491 373.8C507.3 378.7 523.7 439.3 531.8 469.7L540 500L540 393L531.8 357.7C523.7 322.3 507.3 251.7 491 237.2C474.7 222.7 458.3 264.3 442 261.2C425.7 258 409.3 210 393 210C376.7 210 360.3 258 344 285.2C327.7 312.3 311.3 318.7 294.8 294.7C278.3 270.7 261.7 216.3 245.2 198.8C228.7 181.3 212.3 200.7 196 221.5C179.7 242.3 163.3 264.7 147 290.2C130.7 315.7 114.3 344.3 98 326.7C81.7 309 65.3 245 49 217.8C32.7 190.7 16.3 200.3 8.2 205.2L0 210Z" fill="#005acc"></path><path d="M0 443L8.2 451C16.3 459 32.7 475 49 497.3C65.3 519.7 81.7 548.3 98 557.8C114.3 567.3 130.7 557.7 147 546.5C163.3 535.3 179.7 522.7 196 501.8C212.3 481 228.7 452 245.2 453.5C261.7 455 278.3 487 294.8 488.7C311.3 490.3 327.7 461.7 344 453.7C360.3 445.7 376.7 458.3 393 492C409.3 525.7 425.7 580.3 442 575.7C458.3 571 474.7 507 491 507C507.3 507 523.7 571 531.8 603L540 635L540 498L531.8 467.7C523.7 437.3 507.3 376.7 491 371.8C474.7 367 458.3 418 442 411.5C425.7 405 409.3 341 393 323.5C376.7 306 360.3 335 344 354.3C327.7 373.7 311.3 383.3 294.8 368.8C278.3 354.3 261.7 315.7 245.2 310.8C228.7 306 212.3 335 196 360.7C179.7 386.3 163.3 408.7 147 432.7C130.7 456.7 114.3 482.3 98 468C81.7 453.7 65.3 399.3 49 362.5C32.7 325.7 16.3 306.3 8.2 296.7L0 287Z" fill="#004b99"></path><path d="M0 711L8.2 719C16.3 727 32.7 743 49 741.5C65.3 740 81.7 721 98 730.7C114.3 740.3 130.7 778.7 147 783.5C163.3 788.3 179.7 759.7 196 766C212.3 772.3 228.7 813.7 245.2 810.3C261.7 807 278.3 759 294.8 736.7C311.3 714.3 327.7 717.7 344 721C360.3 724.3 376.7 727.7 393 730.8C409.3 734 425.7 737 442 753C458.3 769 474.7 798 491 806C507.3 814 523.7 801 531.8 794.5L540 788L540 633L531.8 601C523.7 569 507.3 505 491 505C474.7 505 458.3 569 442 573.7C425.7 578.3 409.3 523.7 393 490C376.7 456.3 360.3 443.7 344 451.7C327.7 459.7 311.3 488.3 294.8 486.7C278.3 485 261.7 453 245.2 451.5C228.7 450 212.3 479 196 499.8C179.7 520.7 163.3 533.3 147 544.5C130.7 555.7 114.3 565.3 98 555.8C81.7 546.3 65.3 517.7 49 495.3C32.7 473 16.3 457 8.2 449L0 441Z" fill="#003865"></path><path d="M0 961L8.2 961C16.3 961 32.7 961 49 961C65.3 961 81.7 961 98 961C114.3 961 130.7 961 147 961C163.3 961 179.7 961 196 961C212.3 961 228.7 961 245.2 961C261.7 961 278.3 961 294.8 961C311.3 961 327.7 961 344 961C360.3 961 376.7 961 393 961C409.3 961 425.7 961 442 961C458.3 961 474.7 961 491 961C507.3 961 523.7 961 531.8 961L540 961L540 786L531.8 792.5C523.7 799 507.3 812 491 804C474.7 796 458.3 767 442 751C425.7 735 409.3 732 393 728.8C376.7 725.7 360.3 722.3 344 719C327.7 715.7 311.3 712.3 294.8 734.7C278.3 757 261.7 805 245.2 808.3C228.7 811.7 212.3 770.3 196 764C179.7 757.7 163.3 786.3 147 781.5C130.7 776.7 114.3 738.3 98 728.7C81.7 719 65.3 738 49 739.5C32.7 741 16.3 725 8.2 717L0 709Z" fill="#002233"></path></svg>