<svg id="visual" viewBox="0 0 540 960" width="540" height="960" xmlns="http://www.w3.org/2000/svg" xmlns:xlink="http://www.w3.org/1999/xlink" version="1.1"><rect x="0" y="0" width="540" height="960" fill="#002233"></rect><path d="M0 653L12.8 673.7C25.7 694.3 51.3 735.7 77 758.3C102.7 781 128.3 785 154 782.7C179.7 780.3 205.3 771.7 231.2 768.7C257 765.7 283 768.3 308.8 774.5C334.7 780.7 360.3 790.3 386 762C411.7 733.7 437.3 667.3 463 642.3C488.7 617.3 514.3 633.7 527.2 641.8L540 650L540 961L527.2 961C514.3 961 488.7 961 463 961C437.3 961 411.7 961 386 961C360.3 961 334.7 961 308.8 961C283 961 257 961 231.2 961C205.3 961 179.7 961 154 961C128.3 961 102.7 961 77 961C51.3 961 25.7 961 12.8 961L0 961Z" fill="#0066FF" stroke-linecap="round" stroke-linejoin="miter"></path></svg>