<svg id="visual" viewBox="0 0 960 540" width="960" height="540" xmlns="http://www.w3.org/2000/svg" xmlns:xlink="http://www.w3.org/1999/xlink" version="1.1"><rect x="0" y="0" width="960" height="540" fill="#0066FF"></rect><path d="M0 419L16 418.2C32 417.3 64 415.7 96 409.8C128 404 160 394 192 399.3C224 404.7 256 425.3 288 436.2C320 447 352 448 384 433.2C416 418.3 448 387.7 480 373.3C512 359 544 361 576 364.7C608 368.3 640 373.7 672 383.8C704 394 736 409 768 409C800 409 832 394 864 384.2C896 374.3 928 369.7 944 367.3L960 365L960 541L944 541C928 541 896 541 864 541C832 541 800 541 768 541C736 541 704 541 672 541C640 541 608 541 576 541C544 541 512 541 480 541C448 541 416 541 384 541C352 541 320 541 288 541C256 541 224 541 192 541C160 541 128 541 96 541C64 541 32 541 16 541L0 541Z" fill="#002233" stroke-linecap="round" stroke-linejoin="miter"></path></svg>