<?xml version="1.0" encoding="UTF-8" standalone="no" ?>
<!DOCTYPE svg PUBLIC "-//W3C//DTD SVG 1.1//EN" "http://www.w3.org/Graphics/SVG/1.1/DTD/svg11.dtd">
<svg xmlns="http://www.w3.org/2000/svg" xmlns:xlink="http://www.w3.org/1999/xlink" version="1.1" width="960" height="540" viewBox="0 0 960 540" xml:space="preserve">
<desc>Created with Fabric.js 5.2.4</desc>
<defs>
</defs>
<g transform="matrix(0 0 0 0 0 0)" id="42c33f77-3cc1-4518-88dd-6cce15f69b8c"  >
</g>
<g transform="matrix(1 0 0 1 480 270)" id="c5c50b3f-5bf6-4ab1-aa91-7aecb54b7fe6"  >
<rect style="stroke: none; stroke-width: 1; stroke-dasharray: none; stroke-linecap: butt; stroke-dashoffset: 0; stroke-linejoin: miter; stroke-miterlimit: 4; fill: rgb(255,255,255); fill-rule: nonzero; opacity: 1; visibility: hidden;" vector-effect="non-scaling-stroke"  x="-480" y="-270" rx="0" ry="0" width="960" height="540" />
</g>
<g transform="matrix(1 0 0 1 480 110.5)"  >
<path style="stroke: none; stroke-width: 1; stroke-dasharray: none; stroke-linecap: butt; stroke-dashoffset: 0; stroke-linejoin: miter; stroke-miterlimit: 4; fill: rgb(0,102,255); fill-rule: nonzero; opacity: 1;" vector-effect="non-scaling-stroke"  transform=" translate(-480, -111)" d="M 0 222 L 14.5 214 C 29 206 58 190 87.2 181 C 116.3 172 145.7 170 174.8 172.7 C 204 175.3 233 182.7 262 174.7 C 291 166.7 320 143.3 349 133.5 C 378 123.7 407 127.3 436.2 132.7 C 465.3 138 494.7 145 523.8 154.8 C 553 164.7 582 177.3 611 179.2 C 640 181 669 172 698 154 C 727 136 756 109 785.2 118.8 C 814.3 128.7 843.7 175.3 872.8 188.8 C 902 202.3 931 182.7 945.5 172.8 L 960 163 L 960 0 L 945.5 0 C 931 0 902 0 872.8 0 C 843.7 0 814.3 0 785.2 0 C 756 0 727 0 698 0 C 669 0 640 0 611 0 C 582 0 553 0 523.8 0 C 494.7 0 465.3 0 436.2 0 C 407 0 378 0 349 0 C 320 0 291 0 262 0 C 233 0 204 0 174.8 0 C 145.7 0 116.3 0 87.2 0 C 58 0 29 0 14.5 0 L 0 0 Z" stroke-linecap="round" />
</g>
<g transform="matrix(1 0 0 1.09 480 173.41)"  >
<path style="stroke: none; stroke-width: 1; stroke-dasharray: none; stroke-linecap: butt; stroke-dashoffset: 0; stroke-linejoin: miter; stroke-miterlimit: 4; fill: rgb(0,90,204); fill-rule: nonzero; opacity: 1;" vector-effect="non-scaling-stroke"  transform=" translate(-480, -198.36)" d="M 0 282 L 14.5 273.8 C 29 265.7 58 249.3 87.2 239.3 C 116.3 229.3 145.7 225.7 174.8 235.7 C 204 245.7 233 269.3 262 261.3 C 291 253.3 320 213.7 349 201 C 378 188.3 407 202.7 436.2 216.2 C 465.3 229.7 494.7 242.3 523.8 246.8 C 553 251.3 582 247.7 611 242.2 C 640 236.7 669 229.3 698 213.2 C 727 197 756 172 785.2 179.3 C 814.3 186.7 843.7 226.3 872.8 239.8 C 902 253.3 931 240.7 945.5 234.3 L 960 228 L 960 161 L 945.5 170.8 C 931 180.7 902 200.3 872.8 186.8 C 843.7 173.3 814.3 126.7 785.2 116.8 C 756 107 727 134 698 152 C 669 170 640 179 611 177.2 C 582 175.3 553 162.7 523.8 152.8 C 494.7 143 465.3 136 436.2 130.7 C 407 125.3 378 121.7 349 131.5 C 320 141.3 291 164.7 262 172.7 C 233 180.7 204 173.3 174.8 170.7 C 145.7 168 116.3 170 87.2 179 C 58 188 29 204 14.5 212 L 0 220 Z" stroke-linecap="round" />
</g>
<g transform="matrix(1 0 0 1.09 480 241.94)"  >
<path style="stroke: none; stroke-width: 1; stroke-dasharray: none; stroke-linecap: butt; stroke-dashoffset: 0; stroke-linejoin: miter; stroke-miterlimit: 4; fill: rgb(0,75,153); fill-rule: nonzero; opacity: 1;" vector-effect="non-scaling-stroke"  transform=" translate(-480, -261.5)" d="M 0 347 L 14.5 338.8 C 29 330.7 58 314.3 87.2 301.7 C 116.3 289 145.7 280 174.8 294.3 C 204 308.7 233 346.3 262 343.7 C 291 341 320 298 349 276.5 C 378 255 407 255 436.2 264 C 465.3 273 494.7 291 523.8 300.8 C 553 310.7 582 312.3 611 308.7 C 640 305 669 296 698 283.5 C 727 271 756 255 785.2 261.3 C 814.3 267.7 843.7 296.3 872.8 308 C 902 319.7 931 314.3 945.5 311.7 L 960 309 L 960 226 L 945.5 232.3 C 931 238.7 902 251.3 872.8 237.8 C 843.7 224.3 814.3 184.7 785.2 177.3 C 756 170 727 195 698 211.2 C 669 227.3 640 234.7 611 240.2 C 582 245.7 553 249.3 523.8 244.8 C 494.7 240.3 465.3 227.7 436.2 214.2 C 407 200.7 378 186.3 349 199 C 320 211.7 291 251.3 262 259.3 C 233 267.3 204 243.7 174.8 233.7 C 145.7 223.7 116.3 227.3 87.2 237.3 C 58 247.3 29 263.7 14.5 271.8 L 0 280 Z" stroke-linecap="round" />
</g>
<g transform="matrix(1 0 0 1.09 480 359.99)"  >
<path style="stroke: none; stroke-width: 1; stroke-dasharray: none; stroke-linecap: butt; stroke-dashoffset: 0; stroke-linejoin: miter; stroke-miterlimit: 4; fill: rgb(0,56,101); fill-rule: nonzero; opacity: 1;" vector-effect="non-scaling-stroke"  transform=" translate(-480, -370.26)" d="M 0 465 L 14.5 466.8 C 29 468.7 58 472.3 87.2 463.3 C 116.3 454.3 145.7 432.7 174.8 427.3 C 204 422 233 433 262 441.2 C 291 449.3 320 454.7 349 452.8 C 378 451 407 442 436.2 446.5 C 465.3 451 494.7 469 523.8 478 C 553 487 582 487 611 472.7 C 640 458.3 669 429.7 698 423.3 C 727 417 756 433 785.2 442.8 C 814.3 452.7 843.7 456.3 872.8 454.5 C 902 452.7 931 445.3 945.5 441.7 L 960 438 L 960 307 L 945.5 309.7 C 931 312.3 902 317.7 872.8 306 C 843.7 294.3 814.3 265.7 785.2 259.3 C 756 253 727 269 698 281.5 C 669 294 640 303 611 306.7 C 582 310.3 553 308.7 523.8 298.8 C 494.7 289 465.3 271 436.2 262 C 407 253 378 253 349 274.5 C 320 296 291 339 262 341.7 C 233 344.3 204 306.7 174.8 292.3 C 145.7 278 116.3 287 87.2 299.7 C 58 312.3 29 328.7 14.5 336.8 L 0 345 Z" stroke-linecap="round" />
</g>
<g transform="matrix(1 0 0 1.59 480 444.33)"  >
<path style="stroke: none; stroke-width: 1; stroke-dasharray: none; stroke-linecap: butt; stroke-dashoffset: 0; stroke-linejoin: miter; stroke-miterlimit: 4; fill: rgb(0,34,51); fill-rule: nonzero; opacity: 1;" vector-effect="non-scaling-stroke"  transform=" translate(-480, -480.44)" d="M 0 541 L 14.5 541 C 29 541 58 541 87.2 541 C 116.3 541 145.7 541 174.8 541 C 204 541 233 541 262 541 C 291 541 320 541 349 541 C 378 541 407 541 436.2 541 C 465.3 541 494.7 541 523.8 541 C 553 541 582 541 611 541 C 640 541 669 541 698 541 C 727 541 756 541 785.2 541 C 814.3 541 843.7 541 872.8 541 C 902 541 931 541 945.5 541 L 960 541 L 960 436 L 945.5 439.7 C 931 443.3 902 450.7 872.8 452.5 C 843.7 454.3 814.3 450.7 785.2 440.8 C 756 431 727 415 698 421.3 C 669 427.7 640 456.3 611 470.7 C 582 485 553 485 523.8 476 C 494.7 467 465.3 449 436.2 444.5 C 407 440 378 449 349 450.8 C 320 452.7 291 447.3 262 439.2 C 233 431 204 420 174.8 425.3 C 145.7 430.7 116.3 452.3 87.2 461.3 C 58 470.3 29 466.7 14.5 464.8 L 0 463 Z" stroke-linecap="round" />
</g>
</svg>